<?xml version="1.0" encoding="UTF-8" standalone="no"?>
<svg width="944px" height="271px" viewBox="0 0 944 271" version="1.1" xmlns="http://www.w3.org/2000/svg" xmlns:xlink="http://www.w3.org/1999/xlink">
    <!-- Generator: Sketch 42 (36781) - http://www.bohemiancoding.com/sketch -->
    <title>Digitick_com</title>
    <desc>Created with Sketch.</desc>
    <defs>
        <polygon id="path-1" points="0 532.818 1219.182 532.818 1219.182 0 0 0"></polygon>
    </defs>
    <g id="Page-1" stroke="none" stroke-width="1" fill="none" fill-rule="evenodd">
        <g id="Digitick_com" transform="translate(-139.000000, -142.000000)">
            <path d="M419.6274,277.9743 C432.5104,277.9743 443.1214,267.5843 444.7234,254.1633 L444.7234,247.1413 C443.1214,233.7123 432.5104,223.3283 419.6274,223.3283 C405.6334,223.3283 394.2874,235.5613 394.2874,250.6543 C394.2874,265.7323 405.6334,277.9743 419.6274,277.9743 Z M444.7234,192.3163 L444.7234,142.8543 L491.2564,142.8543 L491.2564,318.1203 L444.7234,318.1203 L444.7234,310.8373 C435.8494,315.2553 425.8524,317.7553 415.2644,317.7553 C378.7114,317.7553 349.0794,288.1243 349.0794,251.5783 C349.0794,215.0303 378.7114,185.3973 415.2644,185.3973 C425.8524,185.3973 435.8494,187.8973 444.7234,192.3163 Z" id="Fill-1" fill="#302C30"></path>
            <mask id="mask-2" fill="white">
                <use xlink:href="#path-1"></use>
            </mask>
            <g id="Clip-4"></g>
            <polygon id="Fill-3" fill="#302C30" mask="url(#mask-2)" points="499.262 318.121 539.986 318.121 539.986 191.578 499.262 191.578"></polygon>
            <polygon id="Fill-5" fill="#302C30" mask="url(#mask-2)" points="499.262 177.769 539.986 177.769 539.986 142.855 499.262 142.855"></polygon>
            <path d="M607.0239,261.3991 C597.3249,261.3991 589.4539,253.5231 589.4539,243.8181 C589.4539,234.1181 597.3249,226.2371 607.0239,226.2371 C616.7339,226.2371 624.6129,234.1181 624.6129,243.8181 C624.6129,253.5231 616.7339,261.3991 607.0239,261.3991 M650.9899,204.6921 L662.6599,187.9431 L625.9549,187.9431 C619.8949,185.8571 613.4339,184.6721 606.6689,184.6721 C573.9299,184.6721 547.3889,211.2051 547.3889,243.9511 C547.3889,276.6711 573.9299,303.2201 606.6689,303.2201 C612.0899,303.2201 617.3199,302.4271 622.3089,301.0581 C622.9449,304.0541 625.2269,319.0951 606.9069,319.0951 C587.7589,319.0951 569.5729,304.3021 569.5729,304.3021 L550.4239,335.5821 C550.4239,335.5821 583.6389,361.8341 617.3749,356.2961 C651.3379,350.7261 670.1019,325.9251 663.6349,294.3711 C662.2829,287.7461 659.1719,281.0501 656.4259,276.0581 C662.4279,266.8131 665.9319,255.7951 665.9319,243.9511 C665.9319,228.8621 660.2679,215.1481 650.9899,204.6921" id="Fill-6" fill="#302C30" mask="url(#mask-2)"></path>
            <polygon id="Fill-7" fill="#302C30" mask="url(#mask-2)" points="673.635 318.121 714.365 318.121 714.365 191.578 673.635 191.578"></polygon>
            <polygon id="Fill-8" fill="#302C30" mask="url(#mask-2)" points="673.635 177.769 714.365 177.769 714.365 142.855 673.635 142.855"></polygon>
            <polygon id="Fill-9" fill="#2F2B30" mask="url(#mask-2)" points="802.187 319.107 843.21 319.107 843.21 191.671 802.187 191.671"></polygon>
            <path d="M998.4687,258.796 L1001.4047,258.814 L1031.7817,319.062 L1082.5607,319.062 L1051.6897,250.506 L1078.0447,189.963 C1078.0447,189.963 1056.5707,189.472 1039.4767,189.472 C1026.1037,189.472 1023.8537,196.799 1021.4197,201.681 C1018.9807,206.565 1000.4257,245.136 1000.4257,245.136 L998.4687,245.159 L998.4687,142.605 L957.4647,142.605 L957.4647,319.107 L998.4687,319.107 L998.4687,258.796 Z" id="Fill-10" fill="#2F2B30" mask="url(#mask-2)"></path>
            <polygon id="Fill-11" fill="#2F2B30" mask="url(#mask-2)" points="802.187 177.765 843.21 177.765 843.21 142.604 802.187 142.604"></polygon>
            <path d="M776.8047,264.1808 L776.8047,224.3268 L792.9137,224.3268 L792.9137,191.6708 L776.7027,191.6708 L776.3087,160.1808 L736.7557,182.1548 C736.7557,182.1548 736.7777,186.3828 736.8047,191.6708 L726.5117,191.6708 L726.5117,224.3268 L736.9727,224.3268 C737.1057,252.2498 737.2557,284.4078 737.2557,288.1028 C737.2557,294.7728 742.6227,319.3438 762.6387,319.3438 C782.6587,319.3438 795.3457,318.8608 795.3457,318.8608 L795.3457,277.3548 C795.3457,277.3548 776.8047,279.8048 776.8047,264.1808" id="Fill-12" fill="#2F2B30" mask="url(#mask-2)"></path>
            <path d="M949.8164,316.9215 L949.8164,280.7825 C949.8164,280.7825 892.2034,294.4625 892.2034,248.5595 C892.2034,216.8145 947.3714,224.6355 947.3714,224.6355 L947.3714,188.0105 C947.3714,188.0105 852.6484,170.4295 852.6484,251.9725 C852.6484,333.5175 949.8164,316.9215 949.8164,316.9215" id="Fill-13" fill="#2F2B30" mask="url(#mask-2)"></path>
            <path d="M183.813,274.747 L227.672,274.747 L227.672,230.88 L183.813,230.88 L183.813,274.747 Z M271.543,143.147 L227.672,143.147 L227.672,187.01 L183.813,187.01 L183.813,143.147 L139.938,143.147 L139.938,187.01 L183.797,187.01 L183.797,230.88 L139.938,230.88 L139.938,318.617 L227.672,318.617 L227.672,275.002 L271.162,275.002 L271.162,319.246 L315.035,319.246 L315.035,187.075 L271.543,187.075 L271.543,143.147 Z" id="Fill-14" fill="#2F2B30" mask="url(#mask-2)"></path>
            <polygon id="Fill-15" fill="#302C30" mask="url(#mask-2)" points="853.82 411.498 874.097 411.498 874.097 390.289 853.82 390.289"></polygon>
            <path d="M924.0879,371.7614 C922.4549,370.5954 917.3279,370.0134 914.6489,370.0134 C907.4219,370.0134 902.7619,373.5094 902.7619,380.9664 C902.7619,386.9094 906.0239,392.6204 915.3479,392.6204 C919.0759,392.6204 922.2229,391.6874 924.0879,391.2224 L924.0879,411.4974 C921.7559,412.3144 916.2789,412.8964 912.6659,412.8964 C893.3219,412.8964 882.4839,398.4474 882.4839,382.2474 C882.4839,356.3784 901.3629,349.7364 912.0839,349.7364 C914.8809,349.7364 919.6579,350.0854 924.0879,351.4844 L924.0879,371.7614 Z" id="Fill-16" fill="#302C30" mask="url(#mask-2)"></path>
            <path d="M960.4434,392.6207 C966.7344,392.6207 971.7464,387.6087 971.7464,381.3157 C971.7464,375.0227 966.7344,370.0137 960.4434,370.0137 C954.1504,370.0137 949.1384,375.0227 949.1384,381.3157 C949.1384,387.6087 954.1504,392.6207 960.4434,392.6207 M960.4434,349.7357 C977.9224,349.7357 992.0214,363.8377 992.0214,381.3157 C992.0214,398.7967 977.9224,412.8957 960.4434,412.8957 C942.9634,412.8957 928.8634,398.7967 928.8634,381.3157 C928.8634,363.8377 942.9634,349.7357 960.4434,349.7357" id="Fill-17" fill="#302C30" mask="url(#mask-2)"></path>
            <path d="M998.4297,351.1344 L1018.7047,351.1344 L1018.7047,356.7284 L1018.9397,356.7284 C1020.1037,355.3294 1025.1157,349.7364 1033.1547,349.7364 C1036.0687,349.7364 1041.4297,349.7364 1047.3707,356.7284 C1052.4997,351.3664 1059.0237,349.7364 1063.3357,349.7364 C1076.1547,349.7364 1082.0977,358.3594 1082.0977,367.0994 L1082.0977,411.4974 L1061.8227,411.4974 L1061.8227,379.1034 C1061.8227,376.1894 1061.8227,370.9454 1056.2287,370.9454 C1050.4027,370.9454 1050.4027,375.3724 1050.4027,378.2864 L1050.4027,411.4974 L1030.1247,411.4974 L1030.1247,379.1034 C1030.1247,376.1894 1030.1247,370.9454 1024.5317,370.9454 C1018.7047,370.9454 1018.7047,375.3724 1018.7047,378.2864 L1018.7047,411.4974 L998.4297,411.4974 L998.4297,351.1344 Z" id="Fill-18" fill="#302C30" mask="url(#mask-2)"></path>
        </g>
    </g>
</svg>